<?xml version="1.0" encoding="utf-8"?>
<!-- Generator: Adobe Illustrator 24.1.1, SVG Export Plug-In . SVG Version: 6.00 Build 0)  -->
<svg version="1.1" id="Capa_1" xmlns="http://www.w3.org/2000/svg" xmlns:xlink="http://www.w3.org/1999/xlink" x="0px" y="0px"
	 viewBox="0 0 615.4 194.7" style="enable-background:new 0 0 615.4 194.7;" xml:space="preserve">
<style type="text/css">
	.st0{fill:#FFFFFF;}
	.st1{fill:none;stroke:#000000;stroke-width:5;stroke-linecap:round;stroke-miterlimit:10;}
</style>
<g>
	<path class="st0" d="M64,107.9c15.6,8.2,32.3-5,32.3-21.8c0-10.1-6.2-21.7-23-21.7c-20.2,0-31.1,16-31.1,27.3
		c0,5.5,2.6,10.4,2.6,10.4l-10.5,7.8c0,0-5.1-7.7-5.1-17.8c0-17.3,14-39.9,44.1-39.9c25.4,0,37.9,16.5,37.9,33.7
		c0,23-21.7,44.9-51.2,32.1l-12.2,30.6H31.9l25.5-63.2C60.5,77.6,68,69.7,78,69.7l2.9,8.7c0,0-5.8,2.3-9.2,10.7L64,107.9z"/>
</g>
<g>
	<path class="st0" d="M176.4,120.6c-8.5,14.9-19.4,27.9-31.5,27.9c-6,0-11-2.9-11.9-9.9c-5,5.8-10.7,9.9-17.5,9.9
		c-9.5,0-16.4-7.2-8.1-27.5l12.8-31.7h15.7l-14.3,35.3c-4.5,11-2.9,12.8-0.7,12.8c5,0,10.7-8.4,16.5-18.6l11.9-29.5h15.7l-14.3,35.3
		c-4.8,12-3.1,14.3-0.6,14.3c4.9,0,12.6-8.9,20.5-22.4C172.9,116.6,175.8,118.7,176.4,120.6z"/>
</g>
<g>
	<path class="st0" d="M238.4,120.6c-8.9,15.5-19.3,27.9-32,27.9c-10.8,0-15.7-8.1-7.8-27.8l2.6-6.5c2.2-5.3,3.9-9.6,3.9-11.2
		c0-1.4-1.2-2.3-2.9-2.3c-2.9,0-8,2.4-12.8,7.9l-15.6,38.5h-15.7l23.4-57.8h15.7l-2.3,5.9c2.2-2.1,9.6-7.3,17.3-7.3
		c6.3,0,10,3.5,10,9.4c0,3.1-1.1,7.1-3.5,12.9l-5.8,14.5c-5.2,12.8-2.8,14.1-0.9,14.1c4.9,0,12.8-8.8,20.7-22.3
		C234.9,116.6,237.8,118.7,238.4,120.6z"/>
</g>
<g>
	<path class="st0" d="M272.5,120.6c-8.4,14.6-19.5,27.9-33,27.9c-10.6,0-16.9-7.6-8.9-27.5l12.9-31.7H234l3.2-7.9h9.5l5.8-14.1h15.7
		l-5.8,14.1h9.2l-3.2,7.9h-9.1L245,124.6c-5.1,12.7-2.7,14.3-0.2,14.3c5.9,0,14.1-8.9,22-22.4C268.9,116.6,271.8,118.7,272.5,120.6z
		"/>
</g>
<g>
	<path class="st0" d="M333.4,120.6c-6.2,10.8-16.3,18.1-27.5,16.6c-5.5,6.6-12.9,11.4-22.4,11.4c-11.9,0-19-7.3-19-19.4
		c0-14.7,11-41.3,33.6-41.3c11.7,0,18.7,6.9,18.7,19c0,6.3-2,14.9-5.8,22.4c5.6-0.1,11.7-4.2,16.7-12.8
		C329.8,116.6,332.7,118.7,333.4,120.6z M292.4,131.6c-1.4-1.4-2.2-3.5-2.2-5.8c0-4.7,3.8-8.6,8.9-8.1c1.9-5.1,3-10.2,3-13.5
		c0-4.3-2-6-4.3-6c-9.1,0-18.6,24.8-18.6,33.7c0,3.9,1.8,6.2,4.6,6.2C286.6,138.2,289.8,135.5,292.4,131.6z"/>
</g>
<g>
	<path class="st0" d="M385.5,116l-5.1,12.7c-9.5,23.9-24.5,29.1-35.5,29.1c-17.1,0-25.9-12-25.9-24.3c0-13.6,10.8-24.9,26.5-23.7v13
		c-10.2-0.8-13.1,6.1-13.1,10.6c0,5.9,4.8,11.4,12.1,11.4c10.9,0,17.9-9.8,23.8-24.7l16-39.9c-12.8,4-27.2,5.7-27.2,15.7
		c0,5.5,4.6,7.7,8.1,7.7v12.8c-12.9,0-21.5-8.6-21.4-19.9c0-22.2,26.5-23.7,48.3-31.6c3.9-4.7,9.5-8.1,15.9-8.1l2.9,8.7
		c0,0-5.8,2.2-9.2,10.7l-12.5,30.7c9.2,2,16.5-1.6,22.9-16.3l7.1-17.7c4.5-11.2,13-19.3,30.8-15.8l-2.6,11.1
		c-5.9-0.6-10.1-1-14.1,8.8l-5.1,12.5c-6.2,15.3-14.7,24.3-25.7,26.3c7.7,5,7.1,15,5.8,22.8l-3.1,17.5c-0.8,7.9,0.1,10.5,7.2,10.4
		v11.9c-16,2.5-23.9-8.5-21.9-22.3l2.7-15c2.8-14.4,0.9-20.2-5.8-24.5L385.5,116z"/>
</g>
<g>
	<path class="st0" d="M490.7,120.6c-6.2,10.8-16.3,18.1-27.5,16.6c-5.5,6.6-12.9,11.4-22.4,11.4c-11.9,0-19-7.3-19-19.4
		c0-14.7,11-41.3,33.6-41.3c11.7,0,18.7,6.9,18.7,19c0,6.3-2,14.9-5.8,22.4c5.6-0.1,11.7-4.2,16.7-12.8
		C487.2,116.6,490.1,118.7,490.7,120.6z M449.8,131.6c-1.4-1.4-2.2-3.5-2.2-5.8c0-4.7,3.8-8.6,8.9-8.1c1.9-5.1,3-10.2,3-13.5
		c0-4.3-2-6-4.3-6c-9.1,0-18.6,24.8-18.6,33.7c0,3.9,1.8,6.2,4.6,6.2C444,138.2,447.1,135.5,449.8,131.6z"/>
</g>
<g>
	<path class="st0" d="M551.6,120.6c-6.2,10.8-16.3,18.1-27.5,16.6c-5.5,6.6-12.9,11.4-22.4,11.4c-11.9,0-19-7.3-19-19.4
		c0-14.7,11-41.3,33.6-41.3c11.7,0,18.7,6.9,18.7,19c0,6.3-2,14.9-5.8,22.4c5.6-0.1,11.7-4.2,16.7-12.8
		C548.1,116.6,551,118.7,551.6,120.6z M510.7,131.6c-1.4-1.4-2.2-3.5-2.2-5.8c0-4.7,3.8-8.6,8.9-8.1c1.9-5.1,3-10.2,3-13.5
		c0-4.3-2-6-4.3-6c-9.1,0-18.6,24.8-18.6,33.7c0,3.9,1.8,6.2,4.6,6.2C504.9,138.2,508,135.5,510.7,131.6z"/>
</g>
<g>
	<path class="st0" d="M583.8,120.6c-8.7,15.1-19.5,27.9-31.6,27.9c-9.8,0-16.4-7.5-8.4-27.5l21.8-53.8h15.7l-23.2,57.3
		c-5,12.5-3,14.1-0.9,14.1c4.9,0,13-8.8,20.8-22.3C580.2,116.6,583.1,118.7,583.8,120.6z"/>
</g>
<g>
	<g>
		<path class="st0" d="M290.4,46.8h11.4v16.4c0,8.3-4.1,13-12.1,13s-12.1-4.7-12.1-13V36.3c0-8.3,4.1-13,12.1-13s12.1,4.7,12.1,13v5
			h-7.7v-5.5c0-3.7-1.6-5.1-4.2-5.1c-2.6,0-4.2,1.4-4.2,5.1v27.9c0,3.7,1.6,5,4.2,5c2.6,0,4.2-1.3,4.2-5v-9.5h-3.7V46.8z"/>
	</g>
	<g>
		<path class="st0" d="M323.9,75.6c-0.4-1.3-0.7-2.1-0.7-6.3v-8.1c0-4.8-1.6-6.6-5.3-6.6h-2.8v21H307V23.9h12.2
			c8.4,0,12,3.9,12,11.9v4.1c0,5.3-1.7,8.8-5.3,10.5c4.1,1.7,5.4,5.6,5.4,11v8c0,2.5,0.1,4.4,0.9,6.3H323.9z M315.1,31.3v15.9h3.2
			c3,0,4.9-1.3,4.9-5.5v-5.1c0-3.7-1.3-5.3-4.1-5.3H315.1z"/>
	</g>
</g>
</svg>
